<?xml version="1.0" encoding="utf-8"?>
<!-- Generator: Adobe Illustrator 19.0.0, SVG Export Plug-In . SVG Version: 6.00 Build 0)  -->
<svg version="1.1" id="Шар_1" xmlns="http://www.w3.org/2000/svg" xmlns:xlink="http://www.w3.org/1999/xlink" x="0px" y="0px"
	 viewBox="-96 14.5 11.6 15" style="enable-background:new -96 14.5 11.6 15;" xml:space="preserve">
<path d="M-84.8,22.4c-0.4-0.5-0.9-0.8-1.7-0.9c1-0.5,1.4-1.2,1.3-2.3c0-0.4-0.2-0.7-0.4-1c-0.2-0.3-0.5-0.5-0.8-0.7
	c-0.3-0.2-0.7-0.3-1.1-0.4c-0.4-0.1-0.8-0.2-1.4-0.2v-2.3h-1.5v2.2c-0.3,0-0.7,0-1.2,0v-2.2H-93v2.3c-0.2,0-0.5,0-0.9,0l-2.1,0v1.5
	h1.1c0.5,0,0.8,0.2,0.9,0.6v2.6c0.1,0,0.1,0,0.2,0h-0.2v3.6c-0.1,0.3-0.2,0.5-0.6,0.5h-1.1l-0.3,1.6h1.9c0.1,0,0.3,0,0.5,0
	c0.2,0,0.4,0,0.5,0v2.3h1.5v-2.3c0.3,0,0.7,0,1.2,0v2.3h1.5v-2.3c0.5,0,1-0.1,1.4-0.1c0.4-0.1,0.8-0.2,1.2-0.3
	c0.4-0.1,0.7-0.3,0.9-0.5c0.3-0.2,0.5-0.5,0.6-0.8c0.2-0.3,0.3-0.7,0.3-1.1C-84.3,23.5-84.5,22.8-84.8,22.4z M-91.5,18.4
	c0,0,0.2,0,0.4,0c0.2,0,0.4,0,0.5,0c0.1,0,0.3,0,0.6,0c0.2,0,0.4,0,0.6,0.1c0.2,0,0.3,0.1,0.5,0.1c0.2,0.1,0.3,0.2,0.5,0.3
	c0.1,0.1,0.2,0.2,0.3,0.4c0.1,0.2,0.1,0.3,0.1,0.5c0,0.2,0,0.3-0.1,0.5c-0.1,0.1-0.1,0.3-0.3,0.3c-0.1,0.1-0.2,0.2-0.4,0.2
	c-0.1,0.1-0.3,0.1-0.5,0.2s-0.4,0.1-0.5,0.1c-0.1,0-0.3,0-0.5,0.1c-0.2,0-0.4,0-0.5,0c-0.1,0-0.3,0-0.4,0c-0.2,0-0.3,0-0.3,0V18.4
	L-91.5,18.4L-91.5,18.4z M-87.4,24.5c-0.1,0.1-0.1,0.3-0.2,0.4c-0.1,0.1-0.2,0.2-0.4,0.3c-0.2,0.1-0.3,0.1-0.5,0.2
	c-0.1,0-0.3,0.1-0.5,0.1c-0.2,0-0.4,0.1-0.6,0.1c-0.2,0-0.3,0-0.6,0c-0.2,0-0.4,0-0.5,0c-0.1,0-0.3,0-0.5,0c-0.2,0-0.3,0-0.4,0v-3
	c0.1,0,0.2,0,0.5,0c0.3,0,0.5,0,0.6,0c0.2,0,0.4,0,0.7,0c0.3,0,0.5,0,0.7,0.1c0.2,0,0.4,0.1,0.6,0.2c0.2,0.1,0.4,0.2,0.6,0.3
	s0.3,0.2,0.4,0.4c0.1,0.2,0.1,0.4,0.1,0.6C-87.3,24.2-87.4,24.4-87.4,24.5z"/>
</svg>
