<?xml version="1.0" encoding="utf-8"?>
<!-- Generator: Adobe Illustrator 19.0.0, SVG Export Plug-In . SVG Version: 6.00 Build 0)  -->
<svg version="1.1" id="Шар_1" xmlns="http://www.w3.org/2000/svg" xmlns:xlink="http://www.w3.org/1999/xlink" x="0px" y="0px"
	 viewBox="-532 201.5 39 34" style="enable-background:new -532 201.5 39 34;" xml:space="preserve">
<path d="M-494.1,235.5c0.6,0,1.1-0.5,1.1-1.1v-7.9v-23.8c0-0.6-0.5-1.1-1.1-1.1h-36.7c-0.6,0-1.1,0.5-1.1,1.1v23.8
	c0,0.6,0.5,1.1,1.1,1.1h27.1l8.9,7.7C-494.7,235.5-494.4,235.6-494.1,235.5z M-495.3,231.9l-7.3-6.3c-0.2-0.2-0.5-0.3-0.8-0.3h-26.4
	v-21.5h34.4v22.7V231.9z M-502.2,218c1.9,0,3.4-1.5,3.4-3.4c0-1.9-1.6-3.4-3.4-3.4s-3.4,1.5-3.4,3.4
	C-505.6,216.4-504.1,218-502.2,218z M-512.5,218c1.9,0,3.4-1.5,3.4-3.4c0-1.9-1.6-3.4-3.4-3.4c-1.9,0-3.4,1.5-3.4,3.4
	C-515.9,216.4-514.4,218-512.5,218z M-522.8,218c1.9,0,3.4-1.5,3.4-3.4c0-1.9-1.6-3.4-3.4-3.4c-1.9,0-3.4,1.5-3.4,3.4
	C-526.3,216.4-524.7,218-522.8,218z M-502.2,215.7c-0.6,0-1.1-0.5-1.1-1.1c0-0.6,0.5-1.1,1.1-1.1s1.1,0.5,1.1,1.1
	C-501,215.2-501.5,215.7-502.2,215.7z M-512.5,215.7c-0.6,0-1.1-0.5-1.1-1.1c0-0.6,0.5-1.1,1.1-1.1c0.6,0,1.1,0.5,1.1,1.1
	C-511.4,215.2-511.9,215.7-512.5,215.7z M-522.8,215.7c-0.6,0-1.1-0.5-1.1-1.1c0-0.6,0.5-1.1,1.1-1.1c0.6,0,1.1,0.5,1.1,1.1
	C-521.7,215.2-522.2,215.7-522.8,215.7z"/>
</svg>
