<?xml version="1.0" encoding="utf-8"?>
<!-- Generator: Adobe Illustrator 19.0.0, SVG Export Plug-In . SVG Version: 6.00 Build 0)  -->
<svg version="1.1" id="Шар_1" xmlns="http://www.w3.org/2000/svg" xmlns:xlink="http://www.w3.org/1999/xlink" x="0px" y="0px"
	 viewBox="-95 14.5 14 14" style="enable-background:new -95 14.5 14 14;" xml:space="preserve">
<path d="M-81.9,28.5h-12.1c-0.5,0-0.9-0.4-0.9-0.9c0-0.5,0.4-0.9,0.9-0.9h12.1c0.5,0,0.9,0.4,0.9,0.9C-81,28.1-81.4,28.5-81.9,28.5z
	 M-87.3,25.6C-87.3,25.6-87.3,25.6-87.3,25.6c-0.2,0.2-0.4,0.3-0.7,0.3c0,0,0,0,0,0c0,0,0,0,0,0c-0.2,0-0.5-0.1-0.7-0.3c0,0,0,0,0,0
	l-2.9-2.9c-0.4-0.4-0.4-0.9,0-1.3c0.4-0.4,1-0.4,1.3,0l1.3,1.3v-7.3c0-0.5,0.4-0.9,0.9-0.9c0.5,0,0.9,0.4,0.9,0.9v7.3l1.3-1.3
	c0.4-0.4,1-0.4,1.3,0c0.4,0.4,0.4,0.9,0,1.3L-87.3,25.6z"/>
</svg>
