<?xml version="1.0" encoding="utf-8"?>
<!-- Generator: Adobe Illustrator 19.0.0, SVG Export Plug-In . SVG Version: 6.00 Build 0)  -->
<svg version="1.1" id="Шар_1" xmlns="http://www.w3.org/2000/svg" xmlns:xlink="http://www.w3.org/1999/xlink" x="0px" y="0px"
	 viewBox="-85 0.5 35 42" style="enable-background:new -85 0.5 35 42;" xml:space="preserve">
<path d="M-77.7,8.6c-0.7-1-1-2.2-1-3.4c0.1-1.3,0.7-2.6,1.7-3.5c1-0.9,2.4-1.3,3.7-1.3c1.3,0.1,2.6,0.7,3.5,1.8
	c1,1.2,1.7,2.8,2.2,4.3c0.5-1.5,1.2-3.1,2.2-4.3c0.9-1,2.1-1.7,3.5-1.8c1.3-0.1,2.6,0.4,3.7,1.3c1,0.9,1.7,2.2,1.7,3.5
	c0.1,1.2-0.3,2.4-1,3.4h-3c0.4-0.3,0.8-0.6,1.1-1c0.6-0.6,0.8-1.4,0.7-2.2c-0.1-0.8-0.4-1.5-1-2.1c-0.6-0.5-1.2-0.8-1.9-0.8
	c-0.1,0-0.1,0-0.2,0c-0.8,0.1-1.5,0.4-2.1,1c-1.1,1.3-1.8,3.2-2.2,5h-3.2c-0.4-1.8-1-3.6-2.2-5c-0.6-0.6-1.2-1-2.1-1
	c-0.1,0-0.1,0-0.2,0c-0.7,0-1.4,0.3-1.9,0.8c-1.2,1.1-1.4,3-0.3,4.3c0.3,0.3,0.7,0.7,1.1,1H-77.7z M-50,11.1v7.8c0,0.6-0.5,1-1,1
	h-15.4v20.4h12.1v-19h2.1v20.1c0,0.6-0.5,1-1,1h-28.4c-0.6,0-1-0.5-1-1V21.4h2.1v19h12.1V20H-84c-0.6,0-1-0.5-1-1v-7.8
	c0-0.6,0.5-1.1,1-1.1H-51C-50.5,10-50,10.5-50,11.1z M-68.5,12.1h-14.4v5.7h14.4V12.1z M-52.1,12.1h-14.4v5.7h14.4V12.1z"/>
</svg>
