<?xml version="1.0" encoding="utf-8"?>
<!-- Generator: Adobe Illustrator 19.0.0, SVG Export Plug-In . SVG Version: 6.00 Build 0)  -->
<svg version="1.1" id="Шар_1" xmlns="http://www.w3.org/2000/svg" xmlns:xlink="http://www.w3.org/1999/xlink" x="0px" y="0px"
	 viewBox="-95 16 13.3 12.6" style="enable-background:new -95 16 13.3 12.6;" xml:space="preserve">
<path d="M-81.8,23.7v4.9h-2.8V24c0-1.1-0.4-1.9-1.4-1.9c-0.8,0-1.3,0.5-1.5,1c-0.1,0.2-0.1,0.4-0.1,0.7v4.7h-2.8c0,0,0-7.7,0-8.5
	h2.8v1.2c0,0,0,0,0,0h0v0c0.4-0.6,1.1-1.4,2.6-1.4C-83.2,19.9-81.8,21.1-81.8,23.7z M-93.4,16c-1,0-1.6,0.6-1.6,1.5
	c0,0.8,0.6,1.5,1.6,1.5h0c1,0,1.6-0.7,1.6-1.5C-91.8,16.6-92.4,16-93.4,16z M-94.8,28.5h2.8V20h-2.8V28.5z"/>
</svg>
