<?xml version="1.0" encoding="utf-8"?>
<!-- Generator: Adobe Illustrator 19.0.0, SVG Export Plug-In . SVG Version: 6.00 Build 0)  -->
<svg version="1.1" id="Шар_1" xmlns="http://www.w3.org/2000/svg" xmlns:xlink="http://www.w3.org/1999/xlink" x="0px" y="0px"
	 viewBox="-94 16.2 15.2 12.3" style="enable-background:new -94 16.2 15.2 12.3;" xml:space="preserve">
<path d="M-88.9,18.5V28c0,0.1,0,0.3-0.1,0.3c-0.1,0.1-0.2,0.1-0.3,0.1c-0.1,0-0.2,0-0.3-0.1l-3.9-1.9c-0.1-0.1-0.2-0.1-0.3-0.3
	c-0.1-0.1-0.1-0.3-0.1-0.4v-9.3c0-0.1,0-0.2,0.1-0.3c0.1-0.1,0.1-0.1,0.2-0.1c0.1,0,0.2,0,0.4,0.1L-88.9,18.5
	C-88.9,18.5-88.9,18.5-88.9,18.5z M-88.4,19.3l4.5,7l-4.5-2.2V19.3z M-78.8,19.5V28c0,0.1,0,0.2-0.1,0.3c-0.1,0.1-0.2,0.1-0.3,0.1
	c-0.1,0-0.3,0-0.4-0.1l-3.7-1.8L-78.8,19.5z M-78.8,18.5c0,0-0.7,1.2-2.2,3.4c-1.4,2.3-2.3,3.6-2.5,4l-3.3-5.2l2.7-4.3
	c0.1-0.2,0.2-0.2,0.4-0.2c0.1,0,0.2,0,0.2,0L-78.8,18.5C-78.8,18.5-78.8,18.5-78.8,18.5z"/>
</svg>
