<?xml version="1.0" encoding="utf-8"?>
<!-- Generator: Adobe Illustrator 19.0.0, SVG Export Plug-In . SVG Version: 6.00 Build 0)  -->
<svg version="1.1" id="Шар_1" xmlns="http://www.w3.org/2000/svg" xmlns:xlink="http://www.w3.org/1999/xlink" x="0px" y="0px"
	 viewBox="-83 3.5 38 37" style="enable-background:new -83 3.5 38 37;" xml:space="preserve">
<path d="M-45.3,40.2c-0.2,0.2-0.4,0.3-0.7,0.3l-36.1-0.3c-0.5,0-0.9-0.4-0.9-0.9c0-4.3,2.8-5.5,3-5.6c0.3-0.1,6.2-2.4,8.3-3.1
	c1.3-0.4,1.4-1.1,1.4-1.2v-1.9c0-0.5,0.4-0.9,1-0.9c0.5,0,0.9,0.4,0.9,0.9v1.9c0,0.8-0.6,2.2-2.7,2.9c-2,0.7-8.1,3-8.1,3
	c0,0-1.4,0.7-1.7,2.9l34.1,0.3c-0.3-2.3-1.8-2.9-1.8-2.9c0,0-6.1-2.4-8.1-3c-2.1-0.7-2.7-2.2-2.7-2.9v-1.9c0-0.5,0.4-0.9,0.9-0.9
	c0.5,0,1,0.4,1,0.9v1.9c0,0,0.1,0.7,1.4,1.1c2,0.7,8,3,8.2,3.1c0.1,0,3,1.3,3,5.6C-45,39.8-45.1,40-45.3,40.2z M-54.1,17.8l-0.5,3
	c-0.1,0.4-0.3,0.8-0.7,1c-0.2,0.2-0.6,0.3-0.9,0.3v0c0,1.2-0.6,2.3-1.5,3.1l-3.8,2.9c-0.7,0.6-1.6,0.9-2.5,0.9c-0.9,0-1.9-0.4-2.7-1
	l-3.3-2.7c-0.9-0.8-1.4-1.8-1.4-3v-0.1c-0.3,0-0.5-0.1-0.8-0.3c-0.4-0.2-0.6-0.6-0.7-1l-0.5-3c-0.1-0.8,0.3-1.5,1-1.7
	c-0.6-1.3-1.4-3.2-1.6-4.1c-0.2-0.9-0.2-2.3,0.6-3.3c0.3-0.4,0.9-0.9,1.8-1.1c0.1-0.5,0.4-1.2,1-2.1c0.8-1,2.9-1.8,5.3-2
	c3.8-0.3,7.4,0.8,9.9,3.1c2.8,2.6,1.4,7.2,0.4,9.5C-54.3,16.5-54,17.2-54.1,17.8z M-69.5,22.2C-69.5,22.3-69.5,22.3-69.5,22.2
	c0,0.7,0.2,1.3,0.7,1.7l3.3,2.7c0.8,0.7,2,0.8,2.8,0.1l3.8-2.9c0.5-0.4,0.8-1,0.8-1.7c0,0,0-0.1,0-0.1l0.8-4.8
	c-0.3-3.6-1.5-4.5-6.1-4.5c-2.1,0-3.4,0-4.3-0.2c0,0.6-0.1,1.3-0.4,2.1c-0.5,1.4-1.3,2.5-1.7,2.9L-69.5,22.2z M-56.5,8
	c-3-2.7-6.9-2.7-8.5-2.6c-2.2,0.2-3.7,0.9-4,1.3c-0.6,0.7-0.7,1.1-0.7,1.2c0.2,0.3,0.2,0.6,0.1,0.9c-0.1,0.4-0.5,0.6-0.9,0.6
	c-0.6,0-1.1,0.2-1.4,0.6c-0.4,0.5-0.4,1.2-0.3,1.7c0.2,0.7,0.9,2.4,1.5,3.8c0.2-0.4,0.4-0.9,0.6-1.3c0.5-1.4,0.3-2.6,0.3-2.6
	c0-0.4,0.1-0.8,0.5-1c0.3-0.1,0.6-0.1,0.9,0c0.1,0,1.1,0.3,4.7,0.3c3.8,0,6.2,0.6,7.3,3.4C-55.5,12.1-55.1,9.4-56.5,8z"/>
</svg>
