<?xml version="1.0" encoding="utf-8"?>
<!-- Generator: Adobe Illustrator 19.0.0, SVG Export Plug-In . SVG Version: 6.00 Build 0)  -->
<svg version="1.1" id="Шар_1" xmlns="http://www.w3.org/2000/svg" xmlns:xlink="http://www.w3.org/1999/xlink" x="0px" y="0px"
	 viewBox="-82 -2.5 40 46" style="enable-background:new -82 -2.5 40 46;" xml:space="preserve">
<path d="M-59.5,41.5l1.2,2l-4.4-1.9C-73.4,41.3-82,32-82,20.7c0-10.8,7.7-19.6,17.7-20.8l-1.4-2.4l5.3,2.3C-50.1,0.7-42,9.7-42,20.7
	C-42,31.4-49.6,40.2-59.5,41.5z M-61.1,1.9l-4.6,2l1.1-1.8c-8.6,1.4-15.2,9.1-15.2,18.5c0,9.9,7.3,17.9,16.5,18.7l5-2.2l-1.2,2.1
	C-50.8,38-44,30.1-44,20.6C-44,10.6-51.6,2.4-61.1,1.9z M-58,22c0.5,0.4,0.8,0.8,1.1,1.4c0.3,0.5,0.4,1.2,0.4,2c0,0.7-0.1,1.4-0.4,2
	c-0.3,0.6-0.6,1.1-1.1,1.5c-0.4,0.4-1,0.7-1.6,1c-0.6,0.2-1.2,0.4-1.9,0.4l0,1.7l-1.1,0l0-1.7c-1,0-1.9-0.2-2.8-0.5
	c-0.9-0.3-1.6-0.9-2.2-1.8l1.6-1.5c0.3,0.6,0.8,1,1.4,1.3c0.6,0.3,1.3,0.5,1.9,0.5l0-6.2c-0.6-0.2-1.2-0.4-1.7-0.7
	c-0.6-0.3-1-0.6-1.5-1c-0.4-0.4-0.8-0.9-1-1.4c-0.2-0.5-0.4-1.2-0.4-1.9c0-0.7,0.1-1.3,0.4-1.9c0.3-0.6,0.6-1.1,1-1.5
	c0.4-0.4,0.9-0.7,1.5-1c0.6-0.2,1.1-0.4,1.8-0.4l0-1.6l1.1,0l0,1.6c0.8,0,1.7,0.2,2.5,0.5c0.8,0.3,1.5,0.8,2,1.5l-1.5,1.5
	c-0.4-0.5-0.8-0.9-1.3-1.1c-0.5-0.3-1.1-0.4-1.7-0.4l0,6.1c0.6,0.2,1.2,0.4,1.8,0.7C-59,21.4-58.4,21.7-58,22z M-64.3,15.3
	c-0.5,0.5-0.7,1.2-0.7,1.9c0,0.4,0.1,0.8,0.2,1.1c0.1,0.3,0.3,0.5,0.5,0.8c0.2,0.2,0.5,0.4,0.8,0.6c0.3,0.2,0.6,0.3,1,0.5l0-5.8
	C-63.2,14.5-63.8,14.8-64.3,15.3z M-61.4,22.5l0,5.9c0.8-0.1,1.5-0.4,2-0.9c0.5-0.5,0.8-1.2,0.8-2c0-0.4-0.1-0.8-0.2-1.1
	c-0.2-0.3-0.4-0.6-0.6-0.8c-0.3-0.2-0.6-0.4-0.9-0.6C-60.7,22.8-61,22.6-61.4,22.5z"/>
</svg>
