<?xml version="1.0" encoding="utf-8"?>
<!-- Generator: Adobe Illustrator 19.0.0, SVG Export Plug-In . SVG Version: 6.00 Build 0)  -->
<svg version="1.1" id="Шар_1" xmlns="http://www.w3.org/2000/svg" xmlns:xlink="http://www.w3.org/1999/xlink" x="0px" y="0px"
	 viewBox="-81 1.5 43 41" style="enable-background:new -81 1.5 43 41;" xml:space="preserve">
<path d="M-74.7,20.5c0.4,1.3,1,2.5,1.8,3.6c-2.3-1.1-4.2-2.6-5.5-4.5c-4.2-6-2-13.6-1.9-13.9c0.1-0.4,0.6-0.8,1-0.8h3.8v2.1h-2.9
	c-0.4,1.9-1.1,7.2,1.7,11.3C-76.1,19.2-75.5,19.9-74.7,20.5z M-38.7,5.7c-0.1-0.4-0.6-0.8-1-0.8h-3.8v2.1h2.9
	c0.4,1.9,1.1,7.2-1.8,11.3c-0.6,0.8-1.2,1.5-1.9,2.1c-0.4,1.3-1,2.5-1.8,3.6c2.3-1.1,4.2-2.6,5.5-4.5C-36.4,13.7-38.6,6-38.7,5.7z
	 M-55.8,29.5v4.3h4.9c0.6,0,1.1,0.5,1.1,1.1v6.5c0,0.6-0.5,1.1-1.1,1.1h-17.3c-0.6,0-1.1-0.5-1.1-1.1v-6.5c0-0.6,0.5-1.1,1.1-1.1
	h4.9v-4.3c-6.3-1.6-10.8-7.4-10.8-14v-13c0-0.6,0.5-1.1,1.1-1.1h27c0.6,0,1.1,0.5,1.1,1.1v13C-44.9,22.2-49.4,27.9-55.8,29.5z
	 M-67.1,36v4.4h15.2V36H-67.1z M-47,15.6V3.7H-72v11.9c0,5.8,4.2,10.9,10,12.1c0.5,0.1,0.9,0.6,0.9,1.1v5.2h3.2v-5.2
	c0-0.5,0.4-0.9,0.9-1.1C-51.3,26.5-47,21.5-47,15.6z"/>
</svg>
