<?xml version="1.0" encoding="utf-8"?>
<!-- Generator: Adobe Illustrator 19.0.0, SVG Export Plug-In . SVG Version: 6.00 Build 0)  -->
<svg version="1.1" id="Шар_1" xmlns="http://www.w3.org/2000/svg" xmlns:xlink="http://www.w3.org/1999/xlink" x="0px" y="0px"
	 viewBox="-93 13.5 19 16" style="enable-background:new -93 13.5 19 16;" xml:space="preserve">
<path d="M-81.9,21v-5.5c0-1,0.8-1.8,1.8-1.8h4.3c1,0,1.8,0.8,1.8,1.8v8c0,3.4-2.7,6.2-6.1,6.2c-0.7,0-1.2-0.6-1.2-1.2
	c0-0.7,0.6-1.2,1.2-1.2c2,0,3.7-1.7,3.7-3.7V23h-3.7C-81,22.8-81.9,22-81.9,21z M-91.1,22.8h3.7v0.6c0,2-1.6,3.7-3.7,3.7
	c-0.7,0-1.2,0.6-1.2,1.2c0,0.7,0.5,1.2,1.2,1.2c3.4,0,6.1-2.8,6.1-6.2v-8c0-1-0.8-1.8-1.8-1.8h-4.3c-1,0-1.8,0.8-1.8,1.8v5.5
	C-92.9,22-92.1,22.8-91.1,22.8z"/>
</svg>
