<?xml version="1.0" encoding="utf-8"?>
<!-- Generator: Adobe Illustrator 19.0.0, SVG Export Plug-In . SVG Version: 6.00 Build 0)  -->
<svg version="1.1" id="Шар_1" xmlns="http://www.w3.org/2000/svg" xmlns:xlink="http://www.w3.org/1999/xlink" x="0px" y="0px"
	 viewBox="-94 13.6 17 15.9" style="enable-background:new -94 13.6 17 15.9;" xml:space="preserve">
<path d="M-77,21.2c0-1.2-1-2.1-2.1-2.1c-0.7,0-1.3,0.3-1.7,0.8c-1.1-0.5-2.4-0.8-3.8-0.9l1.2-3.6l2.6,0.6c0.2,0.8,0.9,1.3,1.7,1.3
	c1,0,1.8-0.8,1.8-1.8c0-1-0.8-1.8-1.8-1.8c-0.7,0-1.3,0.4-1.6,1l-3-0.6c-0.3-0.1-0.6,0.1-0.7,0.4l-1.4,4.5c-1.6,0-3.1,0.4-4.4,0.9
	c-0.4-0.5-1-0.8-1.7-0.8c-1.2,0-2.1,0.9-2.1,2.1c0,0.6,0.2,1.1,0.6,1.5c-0.2,0.5-0.4,1-0.4,1.6c0,1.4,0.9,2.8,2.5,3.8
	c1.5,1,3.6,1.5,5.8,1.5c2.2,0,4.2-0.5,5.8-1.5c1.6-1,2.5-2.4,2.5-3.8c0-0.5-0.1-1.1-0.4-1.6C-77.2,22.3-77,21.7-77,21.2z
	 M-93.1,21.9c-0.1-0.2-0.2-0.5-0.2-0.7c0-0.8,0.6-1.4,1.4-1.4c0.3,0,0.6,0.1,0.9,0.3C-91.9,20.6-92.6,21.2-93.1,21.9z M-89.9,23.1
	c0-0.8,0.7-1.5,1.5-1.5c0.8,0,1.5,0.7,1.5,1.5c0,0.8-0.7,1.5-1.5,1.5C-89.2,24.6-89.9,23.9-89.9,23.1z M-82.4,26.5
	c-0.6,0.6-1.8,1-3.1,1c-1.3,0-2.5-0.4-3.1-1c-0.1-0.1-0.2-0.3-0.2-0.4c0-0.2,0.1-0.3,0.2-0.4c0.1-0.1,0.3-0.2,0.4-0.2
	c0.2,0,0.3,0.1,0.4,0.2c0.4,0.4,1.3,0.6,2.2,0.6c1,0,1.9-0.3,2.2-0.6c0.1-0.1,0.3-0.2,0.4-0.2c0.2,0,0.3,0.1,0.4,0.2
	c0.1,0.1,0.2,0.3,0.2,0.4C-82.2,26.3-82.3,26.4-82.4,26.5z M-82.7,24.6c-0.8,0-1.5-0.7-1.5-1.5c0-0.8,0.7-1.5,1.5-1.5
	c0.8,0,1.5,0.7,1.5,1.5C-81.1,23.9-81.8,24.6-82.7,24.6z M-77.9,21.9c-0.5-0.7-1.2-1.3-2.1-1.8c0.2-0.2,0.6-0.3,0.9-0.3
	c0.8,0,1.4,0.6,1.4,1.4C-77.7,21.4-77.8,21.7-77.9,21.9z"/>
</svg>
