<?xml version="1.0" encoding="utf-8"?>
<!-- Generator: Adobe Illustrator 19.0.0, SVG Export Plug-In . SVG Version: 6.00 Build 0)  -->
<svg version="1.1" id="Шар_1" xmlns="http://www.w3.org/2000/svg" xmlns:xlink="http://www.w3.org/1999/xlink" x="0px" y="0px"
	 viewBox="-84 3.5 36 36" style="enable-background:new -84 3.5 36 36;" xml:space="preserve">
<path d="M-51.4,20.1c0.6,0,1.1-0.5,1.1-1.1v-2.5c1.3-0.4,2.3-1.7,2.3-3.1c0-1.9-1.5-3.4-3.4-3.4c-1.9,0-3.4,1.5-3.4,3.4
	c0,1.5,0.9,2.7,2.3,3.1v1.4h-6.8v-1.9c0-0.6-0.6-1.1-1.1-1.1h-0.3V10c1.3-0.5,2.3-1.7,2.3-3.2c0-1.8-1.5-3.4-3.4-3.4
	c-1.9,0-3.4,1.6-3.4,3.4c0,1.5,0.9,2.7,2.3,3.2v4.7h-4.5V8.1c0-0.7-0.5-1.1-1.1-1.1h-4.7c-0.4-1.3-1.7-2.3-3.1-2.3
	c-1.8,0-3.4,1.6-3.4,3.4c0,1.9,1.6,3.4,3.4,3.4c1.5,0,2.7-0.9,3.1-2.3h3.6v5.5h-1.9c-0.6,0-1.1,0.6-1.1,1.1v3.9h-6.8v-0.3
	c1.3-0.4,2.3-1.7,2.3-3.1c0-1.8-1.5-3.4-3.4-3.4c-1.9,0-3.4,1.6-3.4,3.4c0,1.5,0.9,2.7,2.3,3.1V21c0,0.6,0.6,1.1,1.1,1.1h7.9V26
	h-4.7c-0.5-1.4-1.7-2.3-3.2-2.3c-1.9,0-3.4,1.6-3.4,3.4c0,1.9,1.5,3.4,3.4,3.4c1.5,0,2.7-0.9,3.2-2.3h7.8v5.5h-3.6
	c-0.4-1.3-1.7-2.2-3.1-2.2c-1.8,0-3.4,1.5-3.4,3.4c0,1.9,1.6,3.4,3.4,3.4c1.5,0,2.7-0.9,3.1-2.3h4.7c0.7,0,1.1-0.5,1.1-1.1v-6.6h4.5
	V33c-1.4,0.5-2.3,1.7-2.3,3.2c0,1.9,1.5,3.4,3.4,3.4c1.9,0,3.4-1.5,3.4-3.4c0-1.5-0.9-2.7-2.3-3.2v-4.7h0.3c0.6,0,1.1-0.5,1.1-1.1
	V25h5.5v5.7c-1.3,0.4-2.3,1.7-2.3,3.1c0,1.9,1.5,3.4,3.4,3.4c1.9,0,3.4-1.5,3.4-3.4c0-1.5-0.9-2.7-2.3-3.1v-6.9
	c0-0.7-0.6-1.1-1.1-1.1h-6.6v-2.7H-51.4z M-51.4,12.2c0.6,0,1.1,0.6,1.1,1.1c0,0.7-0.6,1.1-1.1,1.1c-0.6,0-1.1-0.4-1.1-1.1
	C-52.5,12.6-52,12.2-51.4,12.2z M-76.5,9.3c-0.6,0-1.1-0.4-1.1-1.1S-77,7-76.5,7c0.7,0,1.1,0.5,1.1,1.1S-75.9,9.3-76.5,9.3z
	 M-80.6,17.4c-0.6,0-1.1-0.5-1.1-1.1c0-0.7,0.6-1.1,1.1-1.1c0.6,0,1.1,0.5,1.1,1.1C-79.5,16.9-80.1,17.4-80.6,17.4z M-80.6,28.3
	c-0.6,0-1.1-0.5-1.1-1.1c0-0.6,0.6-1.1,1.1-1.1c0.6,0,1.1,0.6,1.1,1.1S-80.1,28.3-80.6,28.3z M-76.5,36c-0.6,0-1.1-0.5-1.1-1.1
	c0-0.6,0.6-1.1,1.1-1.1c0.7,0,1.1,0.6,1.1,1.1C-75.3,35.6-75.9,36-76.5,36z M-70.5,26v-9h9v9H-70.5z M-61.8,37.3
	c-0.6,0-1.1-0.5-1.1-1.1c0-0.6,0.6-1.1,1.1-1.1c0.7,0,1.1,0.6,1.1,1.1C-60.7,36.7-61.3,37.3-61.8,37.3z M-61.8,8
	C-62.4,8-63,7.6-63,6.9c0-0.6,0.6-1.1,1.1-1.1c0.7,0,1.1,0.6,1.1,1.1C-60.7,7.5-61.3,8-61.8,8z M-52.6,32.8c0.6,0,1.1,0.6,1.1,1.1
	c0,0.7-0.6,1.1-1.1,1.1c-0.7,0-1.1-0.5-1.1-1.1C-53.7,33.3-53.3,32.8-52.6,32.8z"/>
</svg>
