<?xml version="1.0" encoding="utf-8"?>
<!-- Generator: Adobe Illustrator 19.0.0, SVG Export Plug-In . SVG Version: 6.00 Build 0)  -->
<svg version="1.1" id="Шар_1" xmlns="http://www.w3.org/2000/svg" xmlns:xlink="http://www.w3.org/1999/xlink" x="0px" y="0px"
	 viewBox="-95 16.1 14.4 12.5" style="enable-background:new -95 16.1 14.4 12.5;" xml:space="preserve">
<path d="M-94.8,22l3.3,1.2l1.3,4.1c0.1,0.3,0.4,0.4,0.6,0.2l1.8-1.5c0.2-0.2,0.5-0.2,0.7,0l3.3,2.4c0.2,0.2,0.6,0,0.6-0.2l2.4-11.7
	c0.1-0.3-0.2-0.6-0.5-0.4l-13.6,5.2C-95.1,21.4-95.1,21.9-94.8,22z M-90.4,22.6l6.5-4c0.1-0.1,0.2,0.1,0.1,0.2l-5.4,4.9
	c-0.2,0.2-0.3,0.4-0.3,0.7l-0.2,1.3c0,0.2-0.3,0.2-0.3,0l-0.7-2.5C-90.7,23-90.6,22.7-90.4,22.6z"/>
</svg>
