<?xml version="1.0" encoding="utf-8"?>
<!-- Generator: Adobe Illustrator 19.0.0, SVG Export Plug-In . SVG Version: 6.00 Build 0)  -->
<svg version="1.1" id="Шар_1" xmlns="http://www.w3.org/2000/svg" xmlns:xlink="http://www.w3.org/1999/xlink" x="0px" y="0px"
	 viewBox="-95 16.1 15 12.5" style="enable-background:new -95 16.1 15 12.5;" xml:space="preserve">
<path d="M-80,17.5c-0.6,0.3-1.1,0.4-1.8,0.5c0.6-0.4,1.1-1,1.4-1.7c-0.6,0.4-1.2,0.6-1.9,0.8c-0.6-0.6-1.4-1-2.2-1
	c-1.7,0-3.1,1.4-3.1,3.1c0,0.2,0,0.5,0.1,0.7c-2.6-0.1-4.8-1.4-6.3-3.3c-0.3,0.5-0.4,1-0.4,1.6c0,1.1,0.5,2.1,1.4,2.6
	c-0.5,0-1-0.2-1.4-0.4c0,0,0,0,0,0c0,1.5,1.1,2.8,2.5,3.1c-0.3,0.1-0.5,0.1-0.8,0.1c-0.2,0-0.4,0-0.6-0.1c0.4,1.2,1.5,2.2,2.9,2.2
	c-1,0.8-2.4,1.3-3.8,1.3c-0.3,0-0.5,0-0.7,0c1.4,0.9,3,1.4,4.7,1.4c5.7,0,8.7-4.8,8.7-8.9c0-0.1,0-0.3,0-0.4
	C-81,18.7-80.5,18.2-80,17.5z"/>
</svg>
