<?xml version="1.0" encoding="utf-8"?>
<!-- Generator: Adobe Illustrator 19.0.0, SVG Export Plug-In . SVG Version: 6.00 Build 0)  -->
<svg version="1.1" id="Шар_1" xmlns="http://www.w3.org/2000/svg" xmlns:xlink="http://www.w3.org/1999/xlink" x="0px" y="0px"
	 viewBox="-87 8.5 30 26" style="enable-background:new -87 8.5 30 26;" xml:space="preserve">
<path d="M-62.9,34.5H-81c-4.7,0-7.5-5.2-5-9.2l9-14.1c1.2-1.8,3.1-2.8,5-2.8c1.9,0,3.9,0.9,5,2.8l9.1,14.1
	C-55.4,29.3-58.2,34.5-62.9,34.5z M-60.9,27.3l-9-14.1c-0.7-1-1.6-1.1-2-1.1c-0.4,0-1.4,0.1-2,1.1l-9,14.1c-0.7,1.1-0.3,2.1-0.1,2.4
	c0.2,0.4,0.8,1.2,2.1,1.2H-63c1.3,0,1.9-0.9,2.1-1.2C-60.6,29.3-60.2,28.4-60.9,27.3z M-71.5,25.4H-72c-0.5,0-0.8-0.3-0.8-0.8
	l-0.2-5.8c0-0.5,0.3-0.8,0.8-0.8h1c0.5,0,0.8,0.3,0.8,0.8l-0.2,5.8C-70.6,25.1-70.9,25.4-71.5,25.4z M-72.1,26.4h0.7
	c0.5,0,0.8,0.3,0.8,0.8v0.6c0,0.6-0.3,0.8-0.8,0.8h-0.7c-0.6,0-0.8-0.3-0.8-0.8v-0.6C-72.9,26.7-72.6,26.4-72.1,26.4z"/>
</svg>
