<?xml version="1.0" standalone="no"?>
<!DOCTYPE svg PUBLIC "-//W3C//DTD SVG 1.1//EN" "http://www.w3.org/Graphics/SVG/1.1/DTD/svg11.dtd" >
<svg xmlns="http://www.w3.org/2000/svg">
<metadata>Generated by IcoMoon</metadata>
<defs>
<font id="icomoon" horiz-adv-x="1024">
<font-face units-per-em="1024" ascent="960" descent="-64" />
<missing-glyph horiz-adv-x="1024" />
<glyph unicode="&#x20;" horiz-adv-x="512" d="" />
<glyph unicode="&#xe900;" glyph-name="arrow" horiz-adv-x="1729" d="M904.312-64l-824.519 864.416 186.182 172.883 638.338-651.636 638.338 651.636 186.182-186.182z" />
<glyph unicode="&#xe901;" glyph-name="arrow-back" horiz-adv-x="1980" d="M40.96 359.253c0 0 0 0 0 0-27.307 27.307-40.96 54.613-40.96 88.747 0 0 0 0 0 0s0 0 0 0c0 34.133 13.653 61.44 40.96 88.747 0 0 0 0 0 0l402.773 389.12c47.787 47.787 129.707 47.787 184.32 0 47.787-47.787 47.787-129.707 0-177.493l-184.32-177.493h1413.12c68.267 0 129.707-54.613 129.707-122.88s-54.613-122.88-129.707-122.88h-1413.12l184.32-177.493c47.787-47.787 47.787-129.707 0-177.493s-129.707-47.787-184.32 0l-402.773 389.12z" />
<glyph unicode="&#xe902;" glyph-name="bitcoin" horiz-adv-x="792" d="M764.587 420.693c-27.307 34.133-61.44 54.613-116.053 61.44 68.267 34.133 95.573 81.92 88.747 157.013 0 27.307-13.653 47.787-27.307 68.267s-34.133 34.133-54.613 47.787c-20.48 13.653-47.787 20.48-75.093 27.307s-54.613 13.653-95.573 13.653v157.013h-102.4v-150.187c-20.48 0-47.787 0-81.92 0v150.187h-95.573v-157.013c-13.653 0-34.133 0-61.44 0h-143.36v-102.4h75.093c34.133 0 54.613-13.653 61.44-40.96v-177.493c6.827 0 6.827 0 13.653 0h-13.653v-245.76c-6.827-20.48-13.653-34.133-40.96-34.133h-75.093l-20.48-109.227h129.707c6.827 0 20.48 0 34.133 0s27.307 0 34.133 0v-157.013h102.4v157.013c20.48 0 47.787 0 81.92 0v-157.013h102.4v157.013c34.133 0 68.267 6.827 95.573 6.827 27.307 6.827 54.613 13.653 81.92 20.48s47.787 20.48 61.44 34.133c20.48 13.653 34.133 34.133 40.96 54.613 13.653 20.48 20.48 47.787 20.48 75.093 13.653 68.267 0 116.053-20.48 143.36zM307.2 693.76c0 0 13.653 0 27.307 0s27.307 0 34.133 0c6.827 0 20.48 0 40.96 0 13.653 0 27.307 0 40.96-6.827 13.653 0 20.48-6.827 34.133-6.827 13.653-6.827 20.48-13.653 34.133-20.48 6.827-6.827 13.653-13.653 20.48-27.307s6.827-20.48 6.827-34.133c0-13.653 0-20.48-6.827-34.133-6.827-6.827-6.827-20.48-20.48-20.48-6.827-6.827-13.653-13.653-27.307-13.653-6.827-6.827-20.48-6.827-34.133-13.653s-27.307-6.827-34.133-6.827c-6.827 0-20.48 0-34.133-6.827-13.653 0-27.307 0-34.133 0s-20.48 0-27.307 0c-13.653 0-20.48 0-20.48 0v191.147zM587.093 277.333c-6.827-6.827-6.827-20.48-13.653-27.307s-13.653-13.653-27.307-20.48c-13.653-6.827-20.48-6.827-34.133-13.653-6.827 0-20.48-6.827-34.133-6.827s-27.307-6.827-40.96-6.827c-13.653 0-20.48 0-40.96 0-13.653 0-27.307 0-34.133 0s-20.48 0-34.133 0c-13.653 0-20.48 0-27.307 0v204.8c6.827 0 13.653 0 34.133 0s34.133 0 40.96 0c13.653 0 27.307 0 47.787 0s34.133 0 47.787-6.827c13.653 0 27.307-6.827 40.96-13.653s27.307-13.653 40.96-20.48 20.48-13.653 27.307-27.307c6.827-13.653 6.827-27.307 6.827-40.96 6.827 0 0-13.653 0-20.48z" />
<glyph unicode="&#xe903;" glyph-name="comment" horiz-adv-x="1175" d="M1141.459-64c18.071 0 33.129 15.059 33.129 33.129v954.729c0 18.071-15.059 33.129-33.129 33.129h-1105.318c-18.071 0-33.129-15.059-33.129-33.129v-716.8c0-18.071 15.059-33.129 33.129-33.129h816.188l268.047-231.906c3.012-6.024 12.047-9.035 21.082-6.024zM1105.318 44.424l-219.859 189.741c-6.024 6.024-15.059 9.035-24.094 9.035h-795.106v647.529h1036.047v-846.306zM897.506 463.059c57.224 0 102.4 45.176 102.4 102.4s-48.188 102.4-102.4 102.4-102.4-45.176-102.4-102.4c0-54.212 45.176-102.4 102.4-102.4zM587.294 463.059c57.224 0 102.4 45.176 102.4 102.4s-48.188 102.4-102.4 102.4c-57.224 0-102.4-45.176-102.4-102.4 0-54.212 45.176-102.4 102.4-102.4zM277.082 463.059c57.224 0 102.4 45.176 102.4 102.4s-48.188 102.4-102.4 102.4c-57.224 0-102.4-45.176-102.4-102.4-3.012-54.212 45.176-102.4 102.4-102.4zM897.506 532.329c-18.071 0-33.129 15.059-33.129 33.129s15.059 33.129 33.129 33.129 33.129-15.059 33.129-33.129c3.012-18.071-12.047-33.129-33.129-33.129zM587.294 532.329c-18.071 0-33.129 15.059-33.129 33.129s15.059 33.129 33.129 33.129c18.071 0 33.129-15.059 33.129-33.129s-15.059-33.129-33.129-33.129zM277.082 532.329c-18.071 0-33.129 15.059-33.129 33.129s15.059 33.129 33.129 33.129c18.071 0 33.129-15.059 33.129-33.129s-15.059-33.129-33.129-33.129z" />
<glyph unicode="&#xe904;" glyph-name="download" d="M958.171-64h-885.029c-36.571 0-65.829 29.257-65.829 65.829s29.257 65.829 65.829 65.829h885.029c36.571 0 65.829-29.257 65.829-65.829s-29.257-65.829-65.829-65.829zM563.2 148.114c0 0 0 0 0 0-14.629-14.629-29.257-21.943-51.2-21.943 0 0 0 0 0 0s0 0 0 0c-14.629 0-36.571 7.314-51.2 21.943 0 0 0 0 0 0l-212.114 212.114c-29.257 29.257-29.257 65.829 0 95.086s73.143 29.257 95.086 0l95.086-95.086v533.943c0 36.571 29.257 65.829 65.829 65.829s65.829-29.257 65.829-65.829v-533.943l95.086 95.086c29.257 29.257 73.143 29.257 95.086 0 29.257-29.257 29.257-65.829 0-95.086l-197.486-212.114z" />
<glyph unicode="&#xe905;" glyph-name="fb" horiz-adv-x="512" d="M126.031 392.862v-448.985h212.677v448.985h141.785l31.508 189.046h-181.169c0 0 0 94.523 0 141.785 0 15.754 7.877 47.262 39.385 47.262 47.262 0 102.4 0 102.4 0v196.923c0 0-94.523 0-189.046 0-63.015 0-165.415-86.646-165.415-173.292 0-94.523 0-204.8 0-204.8h-118.154v-189.046h126.031z" />
<glyph unicode="&#xe906;" glyph-name="gift" horiz-adv-x="853" d="M177.981 762.514c-17.067 24.381-24.381 53.638-24.381 82.895 2.438 31.695 17.067 63.39 41.448 85.333s58.514 31.695 90.21 31.695c31.695-2.438 63.39-17.067 85.333-43.886 24.381-29.257 41.448-68.267 53.638-104.838 12.19 36.571 29.257 75.581 53.638 104.838 21.943 24.381 51.2 41.448 85.333 43.886 31.695 2.438 63.39-9.752 90.21-31.695 24.381-21.943 41.448-53.638 41.448-85.333 2.438-29.257-7.314-58.514-24.381-82.895h-73.143c9.752 7.314 19.505 14.629 26.819 24.381 14.629 14.629 19.505 34.133 17.067 53.638s-9.752 36.571-24.381 51.2c-14.629 12.19-29.257 19.505-46.324 19.505-2.438 0-2.438 0-4.876 0-19.505-2.438-36.571-9.752-51.2-24.381-26.819-31.695-43.886-78.019-53.638-121.905h-78.019c-9.752 43.886-24.381 87.771-53.638 121.905-14.629 14.629-29.257 24.381-51.2 24.381-2.438 0-2.438 0-4.876 0-17.067 0-34.133-7.314-46.324-19.505-29.257-26.819-34.133-73.143-7.314-104.838 7.314-7.314 17.067-17.067 26.819-24.381h-68.267zM853.333 701.562v-190.171c0-14.629-12.19-24.381-24.381-24.381h-375.467v-497.371h295.010v463.238h51.2v-490.057c0-14.629-12.19-24.381-24.381-24.381h-692.419c-14.629 0-24.381 12.19-24.381 24.381v487.619h51.2v-463.238h295.010v497.371h-380.343c-14.629 0-24.381 12.19-24.381 24.381v190.171c0 14.629 12.19 26.819 24.381 26.819h804.571c12.19 2.438 24.381-9.752 24.381-24.381zM402.286 677.181h-351.086v-138.971h351.086v138.971zM802.133 677.181h-351.086v-138.971h351.086v138.971z" />
<glyph unicode="&#xe907;" glyph-name="in" horiz-adv-x="1081" d="M1072.762 334.222v-398.222h-227.556v373.841c0 89.397-32.508 154.413-113.778 154.413-65.016 0-105.651-40.635-121.905-81.27-8.127-16.254-8.127-32.508-8.127-56.889v-381.968h-227.556c0 0 0 625.778 0 690.794h227.556v-97.524c0 0 0 0 0 0v0 0c32.508 48.762 89.397 113.778 211.302 113.778 146.286-8.127 260.063-105.651 260.063-316.952zM130.032 960c-81.27 0-130.032-48.762-130.032-121.905 0-65.016 48.762-121.905 130.032-121.905v0c81.27 0 130.032 56.889 130.032 121.905 0 73.143-48.762 121.905-130.032 121.905zM16.254-55.873h227.556v690.794h-227.556v-690.794z" />
<glyph unicode="&#xe908;" glyph-name="medium" horiz-adv-x="1265" d="M424.585 768.52v-790.894c0-8.325 0-24.976-8.325-24.976-8.325-8.325-16.65-8.325-24.976-8.325s-16.65 0-24.976 8.325l-324.683 158.179c-8.325 8.325-16.65 8.325-24.976 24.976-8.325 8.325-8.325 24.976-8.325 33.301v774.244c0 8.325 0 16.65 8.325 24.976s8.325 8.325 16.65 8.325 16.65 0 33.301-8.325l357.984-199.805c0 0 0 0 0 0zM466.211 701.919l374.634-582.764-374.634 183.154v399.61zM1265.431 685.268v-707.642c0-8.325 0-16.65-8.325-24.976s-16.65-8.325-24.976-8.325c-8.325 0-24.976 0-33.301 8.325l-308.033 149.854 374.634 582.764zM1265.431 768.52c0 0-58.276-99.902-183.154-283.057-116.553-191.48-191.48-299.707-208.13-333.008l-274.732 432.911 224.78 357.984c8.325 16.65 16.65 16.65 33.301 16.65 8.325 0 16.65 0 16.65 0l391.285-191.48c0 0 0 0 0 0z" />
<glyph unicode="&#xe909;" glyph-name="men" horiz-adv-x="1052" d="M1043.373-55.697c-5.535-5.535-11.070-8.303-19.373-8.303l-999.092 8.303c-13.838 0-24.908 11.070-24.908 24.908 0 119.005 77.492 152.216 83.027 154.984 8.303 2.768 171.589 66.422 229.708 85.795 35.978 11.070 38.746 30.443 38.746 33.211v52.584c0 13.838 11.070 24.908 27.676 24.908 13.838 0 24.908-11.070 24.908-24.908v-52.584c0-22.141-16.605-60.886-74.724-80.259-55.351-19.373-224.173-83.027-224.173-83.027s-38.746-19.373-47.049-80.259l943.741-8.303c-8.303 63.654-49.816 80.259-49.816 80.259s-168.822 66.422-224.173 83.027c-58.119 19.373-74.724 60.886-74.724 80.259v52.584c0 13.838 11.070 24.908 24.908 24.908s27.676-11.070 27.676-24.908v-52.584c0 0 2.768-19.373 38.746-30.443 55.351-19.373 221.405-83.027 226.941-85.795 2.768 0 83.027-35.978 83.027-154.984-2.768-8.303-5.535-13.838-11.070-19.373zM799.827 564.238l-13.838-83.027c-2.768-11.070-8.303-22.141-19.373-27.676-5.535-5.535-16.605-8.303-24.908-8.303v0c0-33.211-16.605-63.654-41.514-85.795l-105.168-80.259c-19.373-16.605-44.281-24.908-69.189-24.908s-52.584 11.070-74.724 27.676l-91.33 74.724c-24.908 22.141-38.746 49.816-38.746 83.027v2.768c-8.303 0-13.838 2.768-22.141 8.303-11.070 5.535-16.605 16.605-19.373 27.676l-13.838 83.027c-2.768 22.141 8.303 41.514 27.676 47.049-16.605 35.978-38.746 88.562-44.281 113.47s-5.535 63.654 16.605 91.33c8.303 11.070 24.908 24.908 49.816 30.443 2.768 13.838 11.070 33.211 27.676 58.119 22.141 27.676 80.259 49.816 146.681 55.351 105.168 8.303 204.8-22.141 273.989-85.795 77.492-71.957 38.746-199.265 11.070-262.919 19.373-8.303 27.676-27.676 24.908-44.281zM373.622 442.465c0-2.768 0-2.768 0 0 0-19.373 5.535-35.978 19.373-47.049l91.33-74.724c22.141-19.373 55.351-22.141 77.492-2.768l105.168 80.259c13.838 11.070 22.141 27.676 22.141 47.049 0 0 0 2.768 0 2.768l22.141 132.843c-8.303 99.632-41.514 124.541-168.822 124.541-58.119 0-94.097 0-119.005 5.535 0-16.605-2.768-35.978-11.070-58.119-13.838-38.746-35.978-69.189-47.049-80.259l8.303-130.076zM733.405 835.459c-83.027 74.724-190.962 74.724-235.243 71.957-60.886-5.535-102.4-24.908-110.703-35.978-16.605-19.373-19.373-30.443-19.373-33.211 5.535-8.303 5.535-16.605 2.768-24.908-2.768-11.070-13.838-16.605-24.908-16.605-16.605 0-30.443-5.535-38.746-16.605-11.070-13.838-11.070-33.211-8.303-47.049 5.535-19.373 24.908-66.422 41.514-105.168 5.535 11.070 11.070 24.908 16.605 35.978 13.838 38.746 8.303 71.957 8.303 71.957 0 11.070 2.768 22.141 13.838 27.676 8.303 2.768 16.605 2.768 24.908 0 2.768 0 30.443-8.303 130.076-8.303 105.168 0 171.589-16.605 202.032-94.097 24.908 60.886 35.978 135.611-2.768 174.357z" />
<glyph unicode="&#xe90a;" glyph-name="money" horiz-adv-x="890" d="M500.87-19.478l26.713-44.522-97.948 42.296c-238.191 6.678-429.635 213.704-429.635 465.252 0 240.417 171.409 436.313 394.017 463.026l-31.165 53.426 117.983-51.2c229.287-20.035 409.6-220.383 409.6-465.252 0-238.191-169.183-434.087-389.565-463.026zM465.252 862.052l-102.4-44.522 24.487 40.070c-191.443-31.165-338.365-202.574-338.365-411.826 0-220.383 162.504-398.47 367.304-416.278l111.304 48.974-26.713-46.748c193.67 26.713 345.043 202.574 345.043 414.052 0 222.609-169.183 405.148-380.661 416.278zM534.261 414.609c11.13-8.904 17.809-17.809 24.487-31.165 6.678-11.13 8.904-26.713 8.904-44.522 0-15.583-2.226-31.165-8.904-44.522s-13.357-24.487-24.487-33.391c-8.904-8.904-22.261-15.583-35.617-22.261-13.357-4.452-26.713-8.904-42.296-8.904v-37.843h-24.487v37.843c-22.261 0-42.296 4.452-62.33 11.13s-35.617 20.035-48.974 40.070l35.617 33.391c6.678-13.357 17.809-22.261 31.165-28.939s28.939-11.13 42.296-11.13v138.017c-13.357 4.452-26.713 8.904-37.843 15.583-13.357 6.678-22.261 13.357-33.391 22.261-8.904 8.904-17.809 20.035-22.261 31.165s-8.904 26.713-8.904 42.296c0 15.583 2.226 28.939 8.904 42.296s13.357 24.487 22.261 33.391c8.904 8.904 20.035 15.583 33.391 22.261 13.357 4.452 24.487 8.904 40.070 8.904v35.617h24.487v-35.617c17.809 0 37.843-4.452 55.652-11.13s33.391-17.809 44.522-33.391l-33.391-33.391c-8.904 11.13-17.809 20.035-28.939 24.487-11.13 6.678-24.487 8.904-37.843 8.904v-135.791c13.357-4.452 26.713-8.904 40.070-15.583 15.583-6.678 28.939-13.357 37.843-20.035zM394.017 563.757c-11.13-11.13-15.583-26.713-15.583-42.296 0-8.904 2.226-17.809 4.452-24.487s6.678-11.13 11.13-17.809c4.452-4.452 11.13-8.904 17.809-13.357s13.357-6.678 22.261-11.13v129.113c-15.583-2.226-28.939-8.904-40.070-20.035zM458.574 403.478v-131.339c17.809 2.226 33.391 8.904 44.522 20.035s17.809 26.713 17.809 44.522c0 8.904-2.226 17.809-4.452 24.487-4.452 6.678-8.904 13.357-13.357 17.809-6.678 4.452-13.357 8.904-20.035 13.357-8.904 4.452-15.583 8.904-24.487 11.13z" />
<glyph unicode="&#xe90b;" glyph-name="play" horiz-adv-x="732" d="M732.496 444.263c0-52.321-22.423-104.642-59.796-134.54v0l-403.62-343.825c-29.898-22.423-59.796-37.372-104.642-37.372-89.693 0-164.438 74.745-164.438 171.912v680.175c0 97.168 74.745 171.912 164.438 171.912 37.372 0 74.745-14.949 104.642-37.372v0l403.62-343.825c37.372-22.423 59.796-67.27 59.796-127.066z" />
<glyph unicode="&#xe90c;" glyph-name="price" horiz-adv-x="1074" d="M157.346 485.463c9.99-32.468 24.976-62.439 44.956-89.912-57.444 27.473-104.898 64.937-137.366 112.39-104.898 149.854-49.951 339.668-47.454 347.161 2.498 9.99 14.985 19.98 24.976 19.98h94.907v-52.449h-72.429c-9.99-47.454-27.473-179.824 42.459-282.224 14.985-22.478 29.971-39.961 49.951-54.946zM1056.468 855.102c-2.498 9.99-14.985 19.98-24.976 19.98h-94.907v-52.449h72.429c9.99-47.454 27.473-179.824-44.956-282.224-14.985-19.98-29.971-37.463-47.454-52.449-9.99-32.468-24.976-62.439-44.956-89.912 57.444 27.473 104.898 64.937 137.366 112.39 104.898 144.859 49.951 337.171 47.454 344.663zM629.385 260.683v-107.395h122.38c14.985 0 27.473-12.488 27.473-27.473v-162.341c0-14.985-12.488-27.473-27.473-27.473h-432.078c-14.985 0-27.473 12.488-27.473 27.473v162.341c0 14.985 12.488 27.473 27.473 27.473h122.38v107.395c-157.346 39.961-269.737 184.82-269.737 349.659v324.683c0 14.985 12.488 27.473 27.473 27.473h674.341c14.985 0 27.473-12.488 27.473-27.473v-324.683c0-167.337-112.39-309.698-272.234-349.659zM347.161 98.341v-109.893h379.629v109.893h-379.629zM849.171 607.844v297.21h-624.39v-297.21c0-144.859 104.898-272.234 249.756-302.205 12.488-2.498 22.478-14.985 22.478-27.473v-129.873h79.922v129.873c0 12.488 9.99 22.478 22.478 27.473 142.361 29.971 249.756 154.849 249.756 302.205z" />
<glyph unicode="&#xe90d;" glyph-name="quote" horiz-adv-x="1216" d="M710.4 480v352c0 64 51.2 115.2 115.2 115.2h275.2c64 0 115.2-51.2 115.2-115.2v-512c0-217.6-172.8-396.8-390.4-396.8-44.8 0-76.8 38.4-76.8 76.8 0 44.8 38.4 76.8 76.8 76.8 128 0 236.8 108.8 236.8 236.8v38.4h-236.8c-57.6 12.8-115.2 64-115.2 128zM121.6 364.8h236.8v-38.4c0-128-102.4-236.8-236.8-236.8-44.8 0-76.8-38.4-76.8-76.8 0-44.8 32-76.8 76.8-76.8 217.6 0 390.4 179.2 390.4 396.8v512c0 64-51.2 115.2-115.2 115.2h-275.2c-64 0-115.2-51.2-115.2-115.2v-352c0-76.8 51.2-128 115.2-128z" />
<glyph unicode="&#xe90e;" glyph-name="reddit" horiz-adv-x="1095" d="M1094.843 470.541c0 77.283-64.403 135.245-135.245 135.245-45.082 0-83.723-19.321-109.484-51.522-70.843 32.201-154.566 51.522-244.73 57.962l77.283 231.849 167.447-38.642c12.881-51.522 57.962-83.723 109.484-83.723 64.403 0 115.925 51.522 115.925 115.925s-51.522 115.925-115.925 115.925c-45.082 0-83.723-25.761-103.044-64.403l-193.208 38.642c-19.321 6.44-38.642-6.44-45.082-25.761l-90.164-289.811c-103.044 0-199.648-25.761-283.371-57.962-25.761 32.201-64.403 51.522-109.484 51.522-77.283 0-135.245-57.962-135.245-135.245 0-38.642 12.881-70.843 38.642-96.604-12.881-32.201-25.761-64.403-25.761-103.044 0-90.164 57.962-180.327 161.006-244.73 96.604-64.403 231.849-96.604 373.535-96.604s270.491 32.201 373.535 96.604c103.044 64.403 161.006 154.566 161.006 244.73 0 32.201-6.44 70.843-25.761 103.044 25.761 25.761 38.642 64.403 38.642 96.604zM57.962 425.459c-6.44 12.881-12.881 32.201-12.881 45.082 0 51.522 38.642 90.164 90.164 90.164 19.321 0 38.642-6.44 57.962-19.321-57.962-32.201-103.044-70.843-135.245-115.925zM264.050 348.176c0 51.522 45.082 96.604 96.604 96.604s96.604-45.082 96.604-96.604c0-51.522-45.082-96.604-96.604-96.604s-96.604 45.082-96.604 96.604zM747.069 129.208c-38.642-38.642-115.925-64.403-199.648-64.403s-161.006 25.761-199.648 64.403c-6.44 6.44-12.881 19.321-12.881 25.761 0 12.881 6.44 19.321 12.881 25.761s19.321 12.881 25.761 12.881c12.881 0 19.321-6.44 25.761-12.881 25.761-25.761 83.723-38.642 141.686-38.642 64.403 0 122.365 19.321 141.686 38.642 6.44 6.44 19.321 12.881 25.761 12.881 12.881 0 19.321-6.44 25.761-12.881s12.881-19.321 12.881-25.761c12.881-12.881 6.44-19.321 0-25.761zM727.748 251.572c-51.522 0-96.604 45.082-96.604 96.604s45.082 96.604 96.604 96.604c51.522 0 96.604-45.082 96.604-96.604 6.44-51.522-38.642-96.604-96.604-96.604zM1036.881 425.459c-32.201 45.082-77.283 83.723-135.245 115.925 12.881 12.881 38.642 19.321 57.962 19.321 51.522 0 90.164-38.642 90.164-90.164 0-12.881-6.44-32.201-12.881-45.082z" />
<glyph unicode="&#xe90f;" glyph-name="shema" d="M927.289 487.822c17.067 0 31.289 14.222 31.289 31.289v71.111c36.978 11.378 65.422 48.356 65.422 88.178 0 54.044-42.667 96.711-96.711 96.711s-96.711-42.667-96.711-96.711c0-42.667 25.6-76.8 65.422-88.178v-39.822h-193.422v54.044c0 17.067-17.067 31.289-31.289 31.289h-8.533v139.378c36.978 14.222 65.422 48.356 65.422 91.022 0 51.2-42.667 96.711-96.711 96.711s-96.711-45.511-96.711-96.711c0-42.667 25.6-76.8 65.422-91.022v-133.689h-128v187.733c0 19.911-14.222 31.289-31.289 31.289h-133.689c-11.378 36.978-48.356 65.422-88.178 65.422-51.2 0-96.711-45.511-96.711-96.711 0-54.044 45.511-96.711 96.711-96.711 42.667 0 76.8 25.6 88.178 65.422h102.4v-156.444h-54.044c-17.067 0-31.289-17.067-31.289-31.289v-110.933h-193.422v8.533c36.978 11.378 65.422 48.356 65.422 88.178 0 51.2-42.667 96.711-96.711 96.711s-96.711-45.511-96.711-96.711c0-42.667 25.6-76.8 65.422-88.178v-45.511c0-17.067 17.067-31.289 31.289-31.289h224.711v-110.933h-133.689c-14.222 39.822-48.356 65.422-91.022 65.422-54.044 0-96.711-45.511-96.711-96.711 0-54.044 42.667-96.711 96.711-96.711 42.667 0 76.8 25.6 91.022 65.422h221.867v-156.444h-102.4c-11.378 36.978-48.356 62.578-88.178 62.578-51.2 0-96.711-42.667-96.711-96.711s45.511-96.711 96.711-96.711c42.667 0 76.8 25.6 88.178 65.422h133.689c19.911 0 31.289 14.222 31.289 31.289v187.733h128v-133.689c-39.822-14.222-65.422-48.356-65.422-91.022 0-54.044 42.667-96.711 96.711-96.711s96.711 42.667 96.711 96.711c0 42.667-25.6 76.8-65.422 91.022v133.689h8.533c17.067 0 31.289 14.222 31.289 31.289v62.578h156.444v-162.133c-36.978-11.378-65.422-48.356-65.422-88.178 0-54.044 42.667-96.711 96.711-96.711s96.711 42.667 96.711 96.711c0 42.667-25.6 76.8-65.422 88.178v196.267c0 19.911-17.067 31.289-31.289 31.289h-187.733v76.8h221.867zM927.289 712.533c17.067 0 31.289-17.067 31.289-31.289 0-19.911-17.067-31.289-31.289-31.289-17.067 0-31.289 11.378-31.289 31.289s14.222 31.289 31.289 31.289zM213.333 795.022c-17.067 0-31.289 11.378-31.289 31.289s17.067 34.133 31.289 34.133c19.911 0 31.289-14.222 31.289-31.289s-14.222-34.133-31.289-34.133zM96.711 564.622c-17.067 0-31.289 14.222-31.289 31.289 0 19.911 17.067 31.289 31.289 31.289 17.067 0 31.289-14.222 31.289-31.289s-17.067-31.289-31.289-31.289zM96.711 254.578c-17.067 0-31.289 14.222-31.289 31.289s17.067 31.289 31.289 31.289c17.067 0 31.289-17.067 31.289-31.289s-17.067-31.289-31.289-31.289zM213.333 35.556c-17.067 0-31.289 14.222-31.289 31.289s17.067 31.289 31.289 31.289c19.911 0 31.289-17.067 31.289-31.289 2.844-19.911-14.222-31.289-31.289-31.289zM384 320v256h256v-256h-256zM631.467-1.422c-17.067 0-31.289 14.222-31.289 31.289s17.067 31.289 31.289 31.289c19.911 0 31.289-17.067 31.289-31.289s-17.067-31.289-31.289-31.289zM631.467 832c-17.067 0-34.133 11.378-34.133 31.289 0 17.067 17.067 31.289 31.289 31.289 19.911 0 31.289-17.067 31.289-31.289 2.844-17.067-14.222-31.289-28.444-31.289zM893.156 126.578c17.067 0 31.289-17.067 31.289-31.289 0-19.911-17.067-31.289-31.289-31.289-19.911 0-31.289 14.222-31.289 31.289s11.378 31.289 31.289 31.289z" />
<glyph unicode="&#xe910;" glyph-name="telegram" horiz-adv-x="1180" d="M16.384 476.672l270.336-98.304 106.496-335.872c8.192-24.576 32.768-32.768 49.152-16.384l147.456 122.88c16.384 16.384 40.96 16.384 57.344 0l270.336-196.608c16.384-16.384 49.152 0 49.152 16.384l196.608 958.464c8.192 24.576-16.384 49.152-40.96 32.768l-1114.112-425.984c-16.384-8.192-16.384-49.152 8.192-57.344zM376.832 427.52l532.48 327.68c8.192 8.192 16.384-8.192 8.192-16.384l-442.368-401.408c-16.384-16.384-24.576-32.768-24.576-57.344l-16.384-106.496c0-16.384-24.576-16.384-24.576 0l-57.344 204.8c0 16.384 8.192 40.96 24.576 49.152z" />
<glyph unicode="&#xe911;" glyph-name="tw" horiz-adv-x="1229" d="M1228.8 845.312c-49.152-24.576-90.112-32.768-147.456-40.96 49.152 32.768 90.112 81.92 114.688 139.264-49.152-32.768-98.304-49.152-155.648-65.536-49.152 49.152-114.688 81.92-180.224 81.92-139.264 0-253.952-114.688-253.952-253.952 0-16.384 0-40.96 8.192-57.344-212.992 8.192-393.216 114.688-516.096 270.336-24.576-40.96-32.768-81.92-32.768-131.072 0-90.112 40.96-172.032 114.688-212.992-40.96 0-81.92 16.384-114.688 32.768 0 0 0 0 0 0 0-122.88 90.112-229.376 204.8-253.952-24.576-8.192-40.96-8.192-65.536-8.192-16.384 0-32.768 0-49.152 8.192 32.768-98.304 122.88-180.224 237.568-180.224-81.92-65.536-196.608-106.496-311.296-106.496-24.576 0-40.96 0-57.344 0 114.688-73.728 245.76-114.688 385.024-114.688 466.944 0 712.704 393.216 712.704 729.088 0 8.192 0 24.576 0 32.768 24.576 32.768 65.536 73.728 106.496 131.072z" />
<glyph unicode="&#xe912;" glyph-name="warn" horiz-adv-x="1182" d="M949.169-64h-712.862c-185.108 0-295.385 204.8-196.923 362.338l354.462 555.323c47.262 70.892 122.092 110.277 196.923 110.277s153.6-35.446 196.923-110.277l358.4-555.323c98.462-157.538-11.815-362.338-196.923-362.338zM1027.938 219.569l-354.462 555.323c-27.569 39.385-63.015 43.323-78.769 43.323s-55.138-3.938-78.769-43.323l-354.462-555.323c-27.569-43.323-11.815-82.708-3.938-94.523 7.877-15.754 31.508-47.262 82.708-47.262h704.985c51.2 0 74.831 35.446 82.708 47.262 11.815 15.754 27.569 51.2 0 94.523zM610.462 294.4h-19.692c-19.692 0-31.508 11.815-31.508 31.508l-7.877 228.431c0 19.692 11.815 31.508 31.508 31.508h39.385c19.692 0 31.508-11.815 31.508-31.508l-7.877-228.431c0-19.692-11.815-31.508-35.446-31.508zM586.831 255.015h27.569c19.692 0 31.508-11.815 31.508-31.508v-23.631c0-23.631-11.815-31.508-31.508-31.508h-27.569c-23.631 0-31.508 11.815-31.508 31.508v23.631c0 19.692 11.815 31.508 31.508 31.508z" />
<glyph unicode="&#xe913;" glyph-name="call-phone" horiz-adv-x="718" d="M405.504-50.381c-23.575 8.741-43.93 20.643-61.786 35.453l0.346-0.279c-210.845 174.184-344.197 435.687-344.197 728.336 0 12.742 0.253 25.425 0.754 38.045l-0.057-1.812c4.571 89.655 65.279 163.981 147.469 188.802l1.472 0.382 54.272 16.282c12.477 3.903 26.824 6.152 41.696 6.152 17.934 0 35.104-3.27 50.947-9.245l-0.994 0.329c49.347-18.293 85.233-61.936 92.085-114.693l0.075-0.711 19.456-162.97c0.481-3.687 0.756-7.952 0.756-12.281 0-12.122-2.154-23.74-6.099-34.494l0.223 0.695c-9.151-23.498-26.319-42.193-48.070-53.092l-0.57-0.259-20.992-10.547c-17.998-9.171-30.111-27.565-30.111-48.787 0-2.367 0.151-4.698 0.443-6.985l-0.028 0.271c7.222-57.721 32.012-108.629 68.765-148.293l-0.157 0.172c10.563-10.926 25.352-17.709 41.725-17.709 7.457 0 14.585 1.407 21.133 3.97l-0.394-0.136 22.016 8.704c11.045 4.414 23.847 6.973 37.247 6.973 29.218 0 55.594-12.17 74.334-31.718l0.035-0.036 112.64-121.19c22.989-24.871 37.089-58.254 37.089-94.93 0-56.553-33.524-105.276-81.784-127.38l-0.873-0.358-66.56-30.464c-26.067-12.105-56.582-19.167-88.747-19.167-26.395 0-51.68 4.756-75.044 13.457l1.486-0.485zM265.216 872.909c-5.873 2.251-12.667 3.554-19.765 3.554-5.918 0-11.625-0.906-16.989-2.588l0.402 0.109-54.272-16.23c-49.591-14.852-85.583-58.903-88.206-111.737l-0.011-0.289c-0.399-9.775-0.626-21.248-0.626-32.775 0-266.623 121.503-504.866 312.16-662.381l1.451-1.164c21.719-17.533 49.661-28.146 80.082-28.146 18.833 0 36.716 4.067 52.818 11.371l-0.804-0.326 67.072 30.72c13.427 6.342 23.767 17.381 29.051 30.947l0.133 0.387c2.303 5.881 3.638 12.689 3.638 19.81 0 14.673-5.668 28.022-14.933 37.977l0.031-0.034-112.64 121.19c-2.806 2.676-6.614 4.323-10.806 4.323-1.814 0-3.555-0.308-5.176-0.875l0.11 0.033-22.016-8.755c-15.594-6.177-33.66-9.759-52.562-9.759-41.493 0-78.955 17.258-105.599 44.987l-0.047 0.049c-48.209 51.979-80.927 118.946-90.441 193.172l-0.183 1.747c-0.602 4.862-0.945 10.489-0.945 16.197 0 54.301 31.089 101.34 76.438 124.29l0.795 0.365 20.992 10.24c3.034 1.674 5.366 4.305 6.621 7.478l0.035 0.099c0.674 1.598 1.066 3.456 1.066 5.405 0 0.386-0.015 0.769-0.046 1.147l0.003-0.050-19.968 162.97c-2.415 21.642-16.896 39.377-36.476 46.469l-0.388 0.123z" />
<glyph unicode="&#xe914;" glyph-name="skype" horiz-adv-x="1041" d="M996.905 373.747c3.767 22.225 5.921 47.828 5.921 73.934 0 0.025 0 0.051 0 0.076v-0.004c-2.203 262.903-215.838 475.177-479.051 475.177-1.365 0-2.728-0.006-4.090-0.017l0.209 0.001c-26.631-0.035-52.732-2.186-78.178-6.295l2.815 0.375c-43.462 26.85-96.151 42.76-152.555 42.76-0.238 0-0.477 0-0.715-0.001h0.037c-0.736 0.007-1.606 0.011-2.476 0.011-159.037 0-288.116-128.263-289.436-286.988l-0.001-0.125c0-0.071 0-0.156 0-0.241 0-55.826 16.177-107.874 44.098-151.711l-0.681 1.144c-3.741-22.39-5.879-48.188-5.879-74.485 0-262.22 212.571-474.791 474.791-474.791 2.819 0 5.632 0.025 8.439 0.073l-0.422-0.006c0.139 0 0.303 0 0.467 0 26.451 0 52.413 2.093 77.73 6.123l-2.793-0.366c43.531-26.826 96.279-42.718 152.74-42.718 0.159 0 0.318 0 0.477 0h-0.025c0.712-0.006 1.553-0.010 2.394-0.010 159.068 0 288.175 128.276 289.518 287.027l0.001 0.127c0 0.196 0.001 0.428 0.001 0.66 0 55.717-16.147 107.663-44.016 151.414l0.68-1.142zM749.19 231.819c-22.659-30.313-53.064-53.677-88.307-67.333l-1.364-0.465c-38.852-15.543-83.887-24.559-131.026-24.559-2.922 0-5.836 0.035-8.742 0.104l0.431-0.008c-3.719-0.147-8.086-0.23-12.471-0.23-53.49 0-104.079 12.422-149.039 34.539l1.986-0.883c-29.415 15.785-53.758 37.459-72.172 63.609l-0.436 0.653c-16.615 21.632-27.014 48.808-28.115 78.361l-0.007 0.25c-0.001 0.1-0.001 0.218-0.001 0.336 0 15.295 6.633 29.040 17.18 38.516l0.048 0.042c10.99 10.064 25.695 16.231 41.84 16.231 0.699 0 1.396-0.012 2.089-0.035l-0.101 0.003c0.433 0.012 0.942 0.019 1.453 0.019 13.414 0 25.71-4.791 35.269-12.754l-0.089 0.072c10.897-9.933 19.459-22.234 24.895-36.102l0.226-0.654c7.607-17.87 16.491-33.263 26.96-47.413l-0.441 0.624c10.476-13.118 23.794-23.524 39.056-30.366l0.66-0.265c18.044-7.755 39.047-12.265 61.103-12.265 2.311 0 4.611 0.050 6.898 0.148l-0.326-0.011c2.201-0.106 4.781-0.167 7.375-0.167 31.945 0 61.748 9.172 86.919 25.027l-0.676-0.398c21.070 12.249 35.107 34.556 35.522 60.174l0.001 0.059c0.033 0.748 0.052 1.625 0.052 2.507 0 17.262-7.296 32.82-18.973 43.758l-0.033 0.031c-13.865 12.446-30.649 21.939-49.18 27.323l-0.897 0.223q-31.042 9.703-83.216 20.557c-44.955 9.11-84.277 21.229-121.857 36.715l4.392-1.603c-30.238 12.307-55.628 31.109-75.362 54.788l-0.247 0.305c-17.588 22.652-28.195 51.488-28.195 82.801 0 1.563 0.026 3.12 0.079 4.67l-0.006-0.225c-0.007 0.508-0.010 1.109-0.010 1.71 0 32.696 11.163 62.785 29.885 86.664l-0.231-0.306c21.997 26.962 50.985 47.435 84.213 58.737l1.305 0.386c36.729 13.077 79.094 20.635 123.225 20.635 2.687 0 5.368-0.028 8.042-0.084l-0.4 0.007c1.946 0.038 4.241 0.060 6.54 0.060 34.707 0 68.247-4.993 99.943-14.3l-2.504 0.63c27.917-8.278 52.233-20.703 73.657-36.773l-0.596 0.428c17.293-12.854 31.554-28.729 42.236-46.955l0.4-0.738c8.186-14.112 13.172-30.978 13.566-48.976l0.002-0.114c-0.174-15.746-6.754-29.922-17.252-40.071l-0.016-0.015c-10.456-10.988-25.189-17.822-41.519-17.822-0.523 0-1.044 0.007-1.564 0.021l0.077-0.002c-1.073-0.078-2.325-0.123-3.587-0.123-12.16 0-23.355 4.131-32.259 11.065l0.118-0.088c-10.144 9.824-18.768 21.136-25.539 33.6l-0.363 0.731c-10.389 20.534-24.512 37.745-41.625 51.359l-0.312 0.239c-19.215 11.745-42.469 18.7-67.346 18.7-3.792 0-7.545-0.162-11.255-0.478l0.483 0.033c-2.037 0.101-4.424 0.159-6.824 0.159-27.296 0-52.847-7.468-74.723-20.471l0.675 0.371c-17.374-9.209-29.239-26.771-30.255-47.19l-0.005-0.133c-0.006-0.281-0.010-0.612-0.010-0.943 0-10.802 3.821-20.711 10.186-28.449l-0.062 0.078c7.858-9.027 17.438-16.331 28.257-21.445l0.523-0.222c10.508-5.484 22.792-10.375 35.605-14.010l1.398-0.339q18.954-5.304 62.782-15.418 54.847-11.594 99.538-25.861c28.982-8.861 54.212-20.62 77.379-35.335l-1.276 0.757c20.515-13.113 37.156-30.556 48.959-51.13l0.378-0.716c11.26-20.831 17.878-45.598 17.878-71.911 0-1.691-0.027-3.376-0.082-5.054l0.006 0.245c0.009-0.624 0.013-1.361 0.013-2.099 0-35.926-11.5-69.166-31.019-96.241l0.334 0.487z" />
<glyph unicode="&#xe915;" glyph-name="close" d="M108.152 941.759l895.886-895.939c11.441-11.474 18.515-27.308 18.515-44.794 0-35.039-28.405-63.444-63.444-63.444-17.553 0-33.441 7.128-44.927 18.648l-895.888 896.157c-10.174 11.209-16.402 26.161-16.402 42.567 0 35.036 28.402 63.438 63.438 63.438 16.527 0 31.578-6.32 42.868-16.675l-0.047 0.042zM18.294 45.82l895.886 895.939c11.243 10.313 26.294 16.633 42.821 16.633 35.036 0 63.438-28.402 63.438-63.438 0-16.406-6.228-31.358-16.449-42.62l0.047 0.053-895.886-895.886c-11.668-13.015-28.533-21.167-47.303-21.167-35.036 0-63.438 28.402-63.438 63.438 0 18.635 8.035 35.394 20.83 47l0.053 0.047z" />
</font>
</defs>
</svg>
