<?xml version="1.0" encoding="UTF-8" standalone="no"?>
<svg width="34px" height="20px" viewBox="0 0 34 20" version="1.1" xmlns="http://www.w3.org/2000/svg" xmlns:xlink="http://www.w3.org/1999/xlink">
    <!-- Generator: Sketch 46.2 (44496) - http://www.bohemiancoding.com/sketch -->
    <title>en</title>
    <desc>Created with Sketch.</desc>
    <defs></defs>
    <g id="Symbols" stroke="none" stroke-width="1" fill="none" fill-rule="evenodd">
        <g id="Page-1">
            <g id="en">
                <polygon id="Fill-1" fill="#FFFFFF" points="0 19.5771 33.563 19.5771 33.563 0.0001 0 0.0001"></polygon>
                <polygon id="Fill-2" fill="#BD0034" points="32.7978 0.0003 20.1538 7.0783 22.4728 7.0783 33.5628 0.8693 33.5628 0.0003"></polygon>
                <polygon id="Fill-3" fill="#BD0034" points="21.9492 12.8919 33.5632 19.3909 33.5632 18.0919 24.2692 12.8919"></polygon>
                <polygon id="Fill-4" fill="#BD0034" points="0 1.4898 9.934 7.0778 12.256 7.0778 0 0.1898"></polygon>
                <polygon id="Fill-5" fill="#BD0034" points="11.7297 12.8919 -0.0003 19.4639 -0.0003 19.5769 2.1197 19.5769 14.0517 12.8919"></polygon>
                <polygon id="Fill-6" fill="#1A237B" points="19.5147 0.0003 19.5147 6.5813 31.2657 0.0003"></polygon>
                <polygon id="Fill-7" fill="#1A237B" points="2.6217 0.0003 14.3257 6.5813 14.3257 0.0003"></polygon>
                <polygon id="Fill-8" fill="#1A237B" points="25.5906 7.0779 33.5626 7.0779 33.5626 2.5869"></polygon>
                <polygon id="Fill-9" fill="#1A237B" points="25.5906 12.8919 33.5626 17.3349 33.5626 12.8919"></polygon>
                <polygon id="Fill-10" fill="#1A237B" points="3.2859 19.5771 14.3259 19.5771 14.3259 13.3901"></polygon>
                <polygon id="Fill-11" fill="#1A237B" points="19.5147 19.5771 30.5897 19.5771 19.5147 13.3901"></polygon>
                <polygon id="Fill-12" fill="#1A237B" points="0 12.8919 0 17.5349 8.249 12.8919"></polygon>
                <polygon id="Fill-13" fill="#1A237B" points="0 7.0779 8.249 7.0779 0 2.4279"></polygon>
                <polygon id="Fill-14" fill="#BD0034" points="15.3639 0.0003 15.3639 8.2413 -0.0001 8.2413 -0.0001 11.7313 15.3639 11.7313 15.3639 19.5773 18.4769 19.5773 18.4769 11.7313 33.5629 11.7313 33.5629 8.2413 18.4769 8.2413 18.4769 0.0003"></polygon>
            </g>
        </g>
    </g>
</svg>