<?xml version="1.0" encoding="UTF-8" standalone="no"?>
<svg width="34px" height="20px" viewBox="0 0 34 20" version="1.1" xmlns="http://www.w3.org/2000/svg" xmlns:xlink="http://www.w3.org/1999/xlink">
    <!-- Generator: Sketch 46.2 (44496) - http://www.bohemiancoding.com/sketch -->
    <title>Page 1</title>
    <desc>Created with Sketch.</desc>
    <defs></defs>
    <g id="Symbols" stroke="none" stroke-width="1" fill="none" fill-rule="evenodd">
        <g id="Page-1">
            <g>
                <polygon id="Fill-1" fill="#FFFFFF" points="0 19.5781 33.562 19.5781 33.562 0.0001 0 0.0001"></polygon>
                <polygon id="Fill-2" fill="#000000" points="22.211 3.2266 23.453 5.0936 22.776 5.5466 21.532 3.6796"></polygon>
                <polygon id="Fill-3" fill="#000000" points="23.6797 5.4336 24.9267 7.3006 24.2467 7.7496 23.0017 5.8866"></polygon>
                <polygon id="Fill-4" fill="#000000" points="23.2305 2.5469 25.9455 6.6209 25.2655 7.0739 22.5495 2.9999"></polygon>
                <polygon id="Fill-5" fill="#000000" points="24.2471 1.8672 25.4921 3.7382 24.8121 4.1872 23.5671 2.3202"></polygon>
                <polygon id="Fill-6" fill="#000000" points="25.7169 4.0781 26.9599 5.9451 26.2819 6.3981 25.0389 4.5311"></polygon>
                <polygon id="Fill-7" fill="#000000" points="9.3145 11.8242 12.0295 15.8942 11.3505 16.3472 8.6355 12.2772"></polygon>
                <polygon id="Fill-8" fill="#000000" points="8.2969 12.5039 9.5389 14.3669 8.8619 14.8199 7.6179 12.9569"></polygon>
                <polygon id="Fill-9" fill="#000000" points="9.7676 14.7109 11.0106 16.5779 10.3326 17.0309 9.0886 15.1639"></polygon>
                <polygon id="Fill-10" fill="#000000" points="7.2794 13.1836 9.9924 17.2536 9.3144 17.7066 6.5994 13.6366"></polygon>
                <polygon id="Fill-11" fill="#000000" points="8.6358 7.3008 11.3508 3.2268 12.0298 3.6798 9.3148 7.7498"></polygon>
                <polygon id="Fill-12" fill="#000000" points="7.6182 6.6211 10.3332 2.5471 11.0112 3.0001 8.2972 7.0741"></polygon>
                <polygon id="Fill-13" fill="#000000" points="6.5997 5.9453 9.3147 1.8673 9.9927 2.3203 7.2797 6.3983"></polygon>
                <polygon id="Fill-14" fill="#000000" points="21.5323 15.8945 22.7763 14.0315 23.4533 14.4845 22.2113 16.3475"></polygon>
                <polygon id="Fill-15" fill="#000000" points="23.002 13.6953 24.247 11.8243 24.927 12.2773 23.68 14.1443"></polygon>
                <polygon id="Fill-16" fill="#000000" points="22.5499 16.5781 23.7939 14.7111 24.4739 15.1641 23.2309 17.0311"></polygon>
                <polygon id="Fill-17" fill="#000000" points="24.0206 14.3672 25.2656 12.5042 25.9456 12.9572 24.7006 14.8202"></polygon>
                <polygon id="Fill-18" fill="#000000" points="23.5674 17.2539 24.8124 15.3909 25.4924 15.8399 24.2474 17.7069"></polygon>
                <polygon id="Fill-19" fill="#000000" points="25.0391 15.0508 26.2821 13.1838 26.9601 13.6368 25.7171 15.4998"></polygon>
                <g id="Group-26" transform="translate(11.000000, 4.578100)">
                    <path d="M1.709,2.4961 C1.69,2.5191 1.673,2.5471 1.657,2.5781 C1.675,2.5471 1.69,2.5191 1.709,2.4961" id="Fill-20" fill="#B50037"></path>
                    <path d="M8.4971,1.1367 C6.2471,-0.3633 3.2081,0.2497 1.7091,2.4957 C0.9571,3.6167 1.2631,5.1407 2.3881,5.8907 C3.5121,6.6407 5.0301,6.3357 5.7801,5.2107 C6.5301,4.0857 8.0501,3.7847 9.1741,4.5317 C10.3001,5.2817 10.6021,6.8047 9.8511,7.9257 C11.3511,5.6757 10.7451,2.6367 8.4971,1.1367" id="Fill-22" fill="#B50037"></path>
                    <path d="M1.709,2.4961 C0.957,3.6171 1.263,5.1411 2.388,5.8911 C3.512,6.6411 5.03,6.3361 5.78,5.2111 C6.53,4.0861 8.05,3.7851 9.174,4.5311 C10.3,5.2811 10.603,6.8051 9.852,7.9261 C8.354,10.1801 5.315,10.7851 3.065,9.2851 C0.817,7.7851 0.209,4.7461 1.709,2.4961" id="Fill-24" fill="#1E3476"></path>
                </g>
            </g>
        </g>
    </g>
</svg>