<?xml version="1.0" encoding="utf-8"?>
<!-- Generator: Adobe Illustrator 19.0.0, SVG Export Plug-In . SVG Version: 6.00 Build 0)  -->
<svg version="1.1" id="Шар_1" xmlns="http://www.w3.org/2000/svg" xmlns:xlink="http://www.w3.org/1999/xlink" x="0px" y="0px"
	 viewBox="0 0 205.2 45.3" style="enable-background:new 0 0 205.2 45.3;" xml:space="preserve">
<style type="text/css">
	.st0{fill:#31313B;}
	.st1{clip-path:url(#SVGID_2_);fill:#31313B;}
</style>
<polygon class="st0" points="68.4,0 87.7,45.3 98.4,45.3 79.1,0 "/>
<polygon class="st0" points="109.7,0 90.5,45.3 101.1,45.3 120.4,0 "/>
<polygon class="st0" points="194.5,0 175.2,45.3 185.9,45.3 205.2,0 "/>
<polygon class="st0" points="32.3,0 12.6,45.3 23,45.3 42.6,0 "/>
<polygon class="st0" points="52.3,0 32.6,45.3 43,45.3 62.6,0 "/>
<g>
	<defs>
		<rect id="SVGID_1_" y="0" width="205.2" height="45.3"/>
	</defs>
	<clipPath id="SVGID_2_">
		<use xlink:href="#SVGID_1_"  style="overflow:visible;"/>
	</clipPath>
	<path class="st1" d="M138.9,19.1H150c4.2,0,6.7-1.9,6.7-5.5c0-3.4-2.5-5.5-6.7-5.5h-11.1V19.1z M129.6,45.1V0h20.9
		c4.8,0,8.6,1.2,11.3,3.7c2.8,2.4,4.2,5.7,4.2,9.6c0,6-3.5,10.7-9.3,12.5l13.9,19.3h-10.8l-13.1-18.2h-7.8v18.2H129.6z"/>
	<path class="st1" d="M3.9,35.4L3.9,35.4c-2.2,0-3.9-1.7-3.9-3.9c0-2.2,1.7-3.9,3.9-3.9s3.9,1.7,3.9,3.9C7.8,33.7,6.1,35.4,3.9,35.4
		"/>
	<path class="st1" d="M3.9,17.7L3.9,17.7C1.7,17.7,0,16,0,13.8s1.7-3.9,3.9-3.9s3.9,1.7,3.9,3.9S6.1,17.7,3.9,17.7"/>
</g>
</svg>
