<?xml version="1.0" encoding="utf-8"?>
<!-- Generator: Adobe Illustrator 19.0.0, SVG Export Plug-In . SVG Version: 6.00 Build 0)  -->
<svg version="1.1" id="Шар_1" xmlns="http://www.w3.org/2000/svg" xmlns:xlink="http://www.w3.org/1999/xlink" x="0px" y="0px"
	 viewBox="-449 198 204.1 42.5" style="enable-background:new -449 198 204.1 42.5;" xml:space="preserve">
<style type="text/css">
	.st0{fill:#3A91C8;}
	.st1{fill:#3854FC;}
</style>
<g id="XMLID_9_">
	<polygon id="XMLID_17_" class="st0" points="-356.7,240.5 -374.8,198 -384.8,198 -366.7,240.5 	"/>
	<polygon id="XMLID_15_" class="st0" points="-364.2,240.5 -346.1,198 -336.1,198 -354.2,240.5 	"/>
	<polygon id="XMLID_7_" class="st1" points="-284.7,240.5 -266.6,198 -256.6,198 -274.7,240.5 	"/>
	<polygon id="XMLID_6_" class="st1" points="-437.1,240.5 -418.8,198 -409.1,198 -427.4,240.5 	"/>
	<polygon id="XMLID_5_" class="st1" points="-418.4,240.5 -400,198 -390.3,198 -408.6,240.5 	"/>
	<path id="XMLID_19_" class="st0" d="M-318.7,215.9h10.4c3.9,0,6.3-1.8,6.3-5.1c0-3.2-2.4-5.1-6.3-5.1h-10.4V215.9z M-327.4,240.3
		V198h19.6c4.5,0,8,1.1,10.6,3.5c2.6,2.3,3.9,5.3,3.9,9c0,5.6-3.3,10-8.8,11.7l13,18.1h-10.1l-12.3-17.1h-7.3v17.1
		C-318.8,240.3-327.4,240.3-327.4,240.3z"/>
	<path id="XMLID_2_" class="st0" d="M-445.3,231.2L-445.3,231.2c-2,0-3.7-1.6-3.7-3.7c0-2,1.6-3.7,3.7-3.7c2.1,0,3.7,1.6,3.7,3.7
		C-441.7,229.6-443.3,231.2-445.3,231.2"/>
	<path id="XMLID_1_" class="st0" d="M-445.3,214.6L-445.3,214.6c-2.1,0-3.7-1.6-3.7-3.6s1.6-3.7,3.7-3.7c2.1,0,3.7,1.6,3.7,3.7
		C-441.7,213-443.3,214.6-445.3,214.6"/>
</g>
</svg>
