<svg xmlns="http://www.w3.org/2000/svg" width="55.811" height="56" viewBox="0 0 55.811 56">
  <defs>
    <style>
      .cls-1 {
        fill: #ffffff;
        fill-rule: evenodd;
      }
    </style>
  </defs>
  <path id="sent-letter.svg" class="cls-1" d="M999.865,5928a27.942,27.942,0,1,0,26.385,18.91,1.994,1.994,0,1,0-3.8,1.21l0.03,0.09A23.891,23.891,0,1,1,999.865,5932a23.652,23.652,0,0,1,13.985,4.54,1.987,1.987,0,0,0,2.78-.44,2.009,2.009,0,0,0-.44-2.8l-0.01-.01A27.74,27.74,0,0,0,999.865,5928Zm25.915,3.98a1.973,1.973,0,0,0-1.52.7l-26.484,30.39-10.444-10.48a1.97,1.97,0,0,0-2.817,0,2.007,2.007,0,0,0,0,2.83h0l11.949,12a1.988,1.988,0,0,0,2.817,0,1.016,1.016,0,0,1,.091-0.1l27.877-32a1.994,1.994,0,0,0-1.47-3.34h0Z" transform="translate(-971.969 -5928)"/>
</svg>
